<?xml version="1.0" standalone="no"?>
<!DOCTYPE svg PUBLIC "-//W3C//DTD SVG 20010904//EN"
 "http://www.w3.org/TR/2001/REC-SVG-20010904/DTD/svg10.dtd">
<svg version="1.0" xmlns="http://www.w3.org/2000/svg"
 width="220.000000pt" height="220.000000pt" viewBox="0 0 220.000000 220.000000"
 preserveAspectRatio="xMidYMid meet">
<metadata>
Created by potrace 1.14, written by Peter Selinger 2001-2017
</metadata>
<g transform="translate(0.000000,220.000000) scale(0.100000,-0.100000)"
fill="#000000" stroke="none">
<path d="M401 2056 c-17 -18 -22 -33 -19 -60 l3 -37 60 61 59 60 -40 0 c-30 0
-46 -6 -63 -24z"/>
<path d="M472 1987 c-85 -85 -92 -95 -92 -132 l0 -40 125 125 c69 69 125 128
125 132 0 5 -15 8 -33 8 -28 0 -46 -13 -125 -93z"/>
<path d="M537 1922 c-153 -153 -158 -160 -155 -196 l3 -36 195 195 195 195
-40 0 c-39 0 -47 -7 -198 -158z"/>
<path d="M597 1862 c-204 -205 -217 -220 -217 -255 0 -20 3 -37 8 -37 7 0 226
220 427 428 l80 82 -41 0 c-38 0 -46 -6 -257 -218z"/>
<path d="M1017 1998 l83 -83 75 75 c41 41 75 78 75 82 0 5 -71 8 -157 8 l-158
0 82 -82z"/>
<path d="M1310 2072 c0 -4 115 -122 255 -262 l255 -255 0 40 c0 39 -7 47 -223
263 -198 198 -226 222 -255 222 -17 0 -32 -3 -32 -8z"/>
<path d="M1440 2072 c0 -9 363 -372 373 -372 4 0 7 17 7 37 0 34 -11 48 -152
190 -143 144 -154 153 -190 153 -21 0 -38 -3 -38 -8z"/>
<path d="M1690 1955 l125 -126 3 37 c3 35 -2 43 -85 126 -81 81 -91 88 -128
88 l-40 0 125 -125z"/>
<path d="M1710 2072 c0 -4 25 -32 55 -62 l55 -54 0 40 c0 50 -31 84 -78 84
-18 0 -32 -4 -32 -8z"/>
<path d="M647 1782 c-260 -260 -267 -268 -267 -307 l0 -40 270 270 270 270 90
-90 90 -90 90 90 90 90 270 -270 270 -270 0 40 c0 39 -7 47 -270 310 l-270
270 -90 -90 -90 -90 -88 88 c-48 48 -90 87 -92 87 -3 0 -125 -120 -273 -268z"/>
<path d="M865 1750 l-70 -70 83 -83 82 -82 -32 -33 -33 -32 -82 82 -83 83 -70
-70 -70 -70 82 -82 83 -83 -33 -32 -32 -33 -78 78 c-42 42 -82 77 -88 77 -5 0
-39 -29 -74 -65 l-64 -65 82 -83 82 -82 -82 -83 -83 -82 70 -70 70 -70 82 82
83 83 32 -33 33 -32 -90 -90 -90 -90 70 -70 70 -70 85 85 c47 47 90 85 95 85
5 0 22 -12 37 -27 l28 -27 -82 -83 -83 -83 70 -70 70 -70 82 82 83 83 83 -83
82 -82 70 70 70 70 -83 83 -82 83 28 27 c15 15 32 27 37 27 5 0 45 -35 87 -77
l78 -77 70 69 70 70 -82 82 -83 83 33 32 32 33 83 -83 82 -82 70 70 70 70 -83
83 -82 82 82 83 83 82 -65 65 c-35 36 -69 65 -74 65 -6 0 -46 -35 -88 -77
l-78 -78 -32 33 -33 32 83 83 82 82 -70 70 -70 70 -83 -83 -82 -82 -33 32 -32
33 82 82 83 83 -70 70 -70 70 -82 -82 -83 -83 -83 83 -82 82 -70 -70z m318
-122 c75 74 85 81 97 67 12 -14 3 -26 -68 -98 l-82 -82 87 -87 88 -88 82 82
c72 71 84 80 98 68 14 -12 7 -23 -67 -97 l-83 -83 88 -87 87 -88 79 79 c55 54
84 77 95 73 9 -4 16 -10 16 -14 0 -5 -34 -42 -75 -83 -41 -41 -75 -79 -75 -85
0 -5 35 -44 77 -87 67 -67 75 -79 63 -93 -12 -14 -23 -7 -97 67 l-83 83 -87
-88 -88 -87 83 -83 c74 -74 81 -85 67 -97 -14 -12 -26 -4 -93 63 -43 42 -82
77 -87 77 -5 0 -47 -37 -92 -82 l-83 -83 82 -82 c71 -72 80 -84 68 -98 -12
-14 -23 -7 -97 67 l-83 83 -83 -83 c-74 -74 -85 -81 -97 -67 -12 14 -3 26 68
98 l82 82 -83 83 c-45 45 -87 82 -92 82 -5 0 -48 -39 -96 -86 -76 -76 -87 -83
-99 -69 -12 14 -2 27 76 106 l89 89 -88 87 -87 88 -83 -83 c-74 -74 -85 -81
-97 -67 -12 14 -4 26 63 93 42 43 77 82 77 87 0 6 -34 44 -75 85 -41 41 -75
78 -75 83 0 4 7 10 16 14 11 4 40 -19 95 -73 l79 -79 87 88 88 87 -83 83 c-74
75 -81 85 -67 97 14 12 26 3 98 -68 l82 -82 87 87 88 88 -82 82 c-71 72 -80
84 -68 98 12 14 23 7 97 -67 l83 -83 83 83z"/>
<path d="M1010 1395 l-85 -85 88 -88 87 -87 87 87 88 88 -85 85 c-46 47 -87
85 -90 85 -3 0 -44 -38 -90 -85z m125 -55 l29 -30 -32 -33 -32 -32 -32 32 -32
33 29 30 c16 16 32 30 35 30 3 0 19 -14 35 -30z"/>
<path d="M807 1192 l-87 -87 88 -88 87 -87 88 88 87 87 -88 88 -87 87 -88 -88z
m121 -119 l-32 -33 -33 32 -33 32 32 33 32 33 33 -32 33 -32 -32 -33z"/>
<path d="M1217 1192 l-87 -87 88 -88 87 -87 88 88 87 87 -88 88 -87 87 -88
-88z m121 -119 l-32 -33 -33 32 -33 32 32 33 32 33 33 -32 33 -32 -32 -33z"/>
<path d="M1010 985 l-85 -85 88 -88 87 -87 87 87 88 88 -85 85 c-46 47 -87 85
-90 85 -3 0 -44 -38 -90 -85z m125 -55 l29 -30 -32 -33 -32 -32 -32 32 -32 33
29 30 c16 16 32 30 35 30 3 0 19 -14 35 -30z"/>
<path d="M1548 493 l-268 -268 -90 90 -90 90 -90 -90 -90 -90 -263 263 c-144
144 -265 262 -270 262 -4 0 -7 -15 -7 -33 0 -29 27 -59 270 -302 l270 -270 90
90 90 90 90 -90 90 -90 271 271 c265 265 270 271 267 307 l-3 37 -267 -267z"/>
<path d="M1563 388 c-139 -139 -253 -256 -253 -261 0 -4 15 -7 33 -7 29 0 56
24 255 223 218 218 223 224 220 260 l-3 37 -252 -252z"/>
<path d="M380 592 c0 -35 11 -48 218 -255 207 -207 219 -217 255 -217 l39 0
-249 255 c-136 140 -251 255 -255 255 -5 0 -8 -17 -8 -38z"/>
<path d="M380 475 c0 -39 7 -47 158 -198 153 -153 160 -158 196 -155 l36 3
-195 195 -195 195 0 -40z"/>
<path d="M1622 317 c-100 -100 -182 -186 -182 -190 0 -4 17 -7 38 -7 35 0 47
10 190 153 142 142 152 155 152 190 0 20 -3 37 -8 37 -4 0 -89 -82 -190 -183z"/>
<path d="M380 345 c0 -38 7 -47 93 -133 78 -78 97 -92 125 -92 17 0 32 3 32 8
0 4 -56 63 -125 132 l-125 125 0 -40z"/>
<path d="M1690 245 l-125 -125 40 0 c37 0 47 7 128 88 83 83 88 91 85 126 l-3
37 -125 -126z"/>
<path d="M1015 200 l-80 -80 158 0 c86 0 157 3 157 7 0 9 -142 153 -150 153
-3 0 -41 -36 -85 -80z"/>
<path d="M380 204 c0 -55 33 -87 84 -82 l37 3 -61 60 -60 59 0 -40z"/>
<path d="M1763 188 c-29 -30 -53 -57 -53 -61 0 -4 15 -7 33 -7 47 0 79 36 75
84 l-3 37 -52 -53z"/>
</g>
</svg>
